<mxfile host="app.diagrams.net" modified="2023-12-05T18:06:48.942Z" agent="Mozilla/5.0 (Macintosh; Intel Mac OS X 10_15_7) AppleWebKit/537.36 (KHTML, like Gecko) Chrome/119.0.0.0 Safari/537.36" etag="ApQdoEewklnOxPQPzywq" version="22.1.5" type="device">
  <diagram name="Страница — 1" id="flYP3UnYzmbueS3Df7dG">
    <mxGraphModel dx="1026" dy="572" grid="1" gridSize="10" guides="1" tooltips="1" connect="1" arrows="1" fold="1" page="1" pageScale="1" pageWidth="1169" pageHeight="827" math="0" shadow="0">
      <root>
        <mxCell id="0" />
        <mxCell id="1" parent="0" />
        <mxCell id="6U88BlBu6Zvvrf-shsi7-60" style="edgeStyle=orthogonalEdgeStyle;rounded=0;orthogonalLoop=1;jettySize=auto;html=1;" parent="1" source="6U88BlBu6Zvvrf-shsi7-49" target="6U88BlBu6Zvvrf-shsi7-59" edge="1">
          <mxGeometry relative="1" as="geometry" />
        </mxCell>
        <mxCell id="6U88BlBu6Zvvrf-shsi7-49" value="Початкове встановлення p.&lt;br&gt;p = 2^(t-1)&lt;br&gt;t = lg N" style="rounded=0;whiteSpace=wrap;html=1;" parent="1" vertex="1">
          <mxGeometry x="290" y="110" width="100" height="60" as="geometry" />
        </mxCell>
        <mxCell id="6U88BlBu6Zvvrf-shsi7-75" style="edgeStyle=orthogonalEdgeStyle;rounded=0;orthogonalLoop=1;jettySize=auto;html=1;" parent="1" source="6U88BlBu6Zvvrf-shsi7-50" target="6U88BlBu6Zvvrf-shsi7-74" edge="1">
          <mxGeometry relative="1" as="geometry" />
        </mxCell>
        <mxCell id="6U88BlBu6Zvvrf-shsi7-50" value="Встановлення&amp;nbsp;&lt;br&gt;q = 2^(t-1)&lt;br&gt;r = 0&lt;br&gt;d = p" style="whiteSpace=wrap;html=1;rounded=0;" parent="1" vertex="1">
          <mxGeometry x="290" y="260" width="100" height="60" as="geometry" />
        </mxCell>
        <mxCell id="6U88BlBu6Zvvrf-shsi7-58" value="Так" style="edgeStyle=orthogonalEdgeStyle;rounded=0;orthogonalLoop=1;jettySize=auto;html=1;" parent="1" source="6U88BlBu6Zvvrf-shsi7-55" target="6U88BlBu6Zvvrf-shsi7-57" edge="1">
          <mxGeometry x="0.2" relative="1" as="geometry">
            <mxPoint as="offset" />
          </mxGeometry>
        </mxCell>
        <mxCell id="ltZNSOXIOrPb4GvY_4J1-1" value="Ні" style="edgeStyle=orthogonalEdgeStyle;rounded=0;orthogonalLoop=1;jettySize=auto;html=1;" edge="1" parent="1" source="6U88BlBu6Zvvrf-shsi7-55" target="6U88BlBu6Zvvrf-shsi7-74">
          <mxGeometry x="-0.75" relative="1" as="geometry">
            <Array as="points">
              <mxPoint x="400" y="430" />
              <mxPoint x="400" y="360" />
            </Array>
            <mxPoint as="offset" />
          </mxGeometry>
        </mxCell>
        <mxCell id="6U88BlBu6Zvvrf-shsi7-55" value="i &amp;lt; N-d" style="rhombus;whiteSpace=wrap;html=1;rounded=0;" parent="1" vertex="1">
          <mxGeometry x="305" y="410" width="70" height="40" as="geometry" />
        </mxCell>
        <mxCell id="6U88BlBu6Zvvrf-shsi7-65" value="Так" style="edgeStyle=orthogonalEdgeStyle;rounded=0;orthogonalLoop=1;jettySize=auto;html=1;" parent="1" source="6U88BlBu6Zvvrf-shsi7-57" target="6U88BlBu6Zvvrf-shsi7-66" edge="1">
          <mxGeometry x="0.2" relative="1" as="geometry">
            <mxPoint x="340" y="550" as="targetPoint" />
            <mxPoint as="offset" />
          </mxGeometry>
        </mxCell>
        <mxCell id="6U88BlBu6Zvvrf-shsi7-73" value="Ні" style="edgeStyle=orthogonalEdgeStyle;rounded=0;orthogonalLoop=1;jettySize=auto;html=1;" parent="1" source="6U88BlBu6Zvvrf-shsi7-57" edge="1">
          <mxGeometry relative="1" as="geometry">
            <mxPoint x="260" y="500" as="targetPoint" />
          </mxGeometry>
        </mxCell>
        <mxCell id="6U88BlBu6Zvvrf-shsi7-57" value="i &amp;amp; р == r" style="rhombus;whiteSpace=wrap;html=1;rounded=0;" parent="1" vertex="1">
          <mxGeometry x="305" y="480" width="70" height="40" as="geometry" />
        </mxCell>
        <mxCell id="6U88BlBu6Zvvrf-shsi7-61" value="Так" style="edgeStyle=orthogonalEdgeStyle;rounded=0;orthogonalLoop=1;jettySize=auto;html=1;" parent="1" source="6U88BlBu6Zvvrf-shsi7-59" target="6U88BlBu6Zvvrf-shsi7-50" edge="1">
          <mxGeometry x="0.2" relative="1" as="geometry">
            <mxPoint as="offset" />
          </mxGeometry>
        </mxCell>
        <mxCell id="6U88BlBu6Zvvrf-shsi7-63" value="Ні" style="edgeStyle=orthogonalEdgeStyle;rounded=0;orthogonalLoop=1;jettySize=auto;html=1;" parent="1" source="6U88BlBu6Zvvrf-shsi7-59" target="6U88BlBu6Zvvrf-shsi7-62" edge="1">
          <mxGeometry x="0.2" relative="1" as="geometry">
            <mxPoint as="offset" />
          </mxGeometry>
        </mxCell>
        <mxCell id="6U88BlBu6Zvvrf-shsi7-59" value="p &amp;gt;= 1" style="rhombus;whiteSpace=wrap;html=1;rounded=0;" parent="1" vertex="1">
          <mxGeometry x="305" y="190" width="70" height="40" as="geometry" />
        </mxCell>
        <mxCell id="6U88BlBu6Zvvrf-shsi7-62" value="вихід" style="strokeWidth=2;html=1;shape=mxgraph.flowchart.terminator;whiteSpace=wrap;" parent="1" vertex="1">
          <mxGeometry x="405" y="190" width="60" height="40" as="geometry" />
        </mxCell>
        <mxCell id="6U88BlBu6Zvvrf-shsi7-68" value="Так" style="edgeStyle=orthogonalEdgeStyle;rounded=0;orthogonalLoop=1;jettySize=auto;html=1;" parent="1" source="6U88BlBu6Zvvrf-shsi7-66" target="6U88BlBu6Zvvrf-shsi7-67" edge="1">
          <mxGeometry x="0.2" relative="1" as="geometry">
            <mxPoint as="offset" />
          </mxGeometry>
        </mxCell>
        <mxCell id="6U88BlBu6Zvvrf-shsi7-70" value="Ні" style="edgeStyle=orthogonalEdgeStyle;rounded=0;orthogonalLoop=1;jettySize=auto;html=1;" parent="1" source="6U88BlBu6Zvvrf-shsi7-66" edge="1">
          <mxGeometry x="-0.2422" relative="1" as="geometry">
            <mxPoint x="260" y="570" as="targetPoint" />
            <mxPoint as="offset" />
          </mxGeometry>
        </mxCell>
        <mxCell id="6U88BlBu6Zvvrf-shsi7-66" value="Ki+1 &amp;gt; Ki+d+1" style="rhombus;whiteSpace=wrap;html=1;rounded=0;" parent="1" vertex="1">
          <mxGeometry x="282.5" y="550" width="115" height="40" as="geometry" />
        </mxCell>
        <mxCell id="6U88BlBu6Zvvrf-shsi7-69" style="edgeStyle=orthogonalEdgeStyle;rounded=0;orthogonalLoop=1;jettySize=auto;html=1;" parent="1" source="6U88BlBu6Zvvrf-shsi7-67" target="6U88BlBu6Zvvrf-shsi7-55" edge="1">
          <mxGeometry relative="1" as="geometry">
            <Array as="points">
              <mxPoint x="260" y="635" />
              <mxPoint x="260" y="430" />
            </Array>
          </mxGeometry>
        </mxCell>
        <mxCell id="6U88BlBu6Zvvrf-shsi7-67" value="Обмін(R[i+1],R[i+d+1])" style="whiteSpace=wrap;html=1;rounded=0;" parent="1" vertex="1">
          <mxGeometry x="275" y="620" width="130" height="30" as="geometry" />
        </mxCell>
        <mxCell id="6U88BlBu6Zvvrf-shsi7-76" value="Так" style="edgeStyle=orthogonalEdgeStyle;rounded=0;orthogonalLoop=1;jettySize=auto;html=1;" parent="1" source="6U88BlBu6Zvvrf-shsi7-74" target="6U88BlBu6Zvvrf-shsi7-55" edge="1">
          <mxGeometry x="0.2" relative="1" as="geometry">
            <mxPoint as="offset" />
          </mxGeometry>
        </mxCell>
        <mxCell id="6U88BlBu6Zvvrf-shsi7-77" value="Ні" style="edgeStyle=orthogonalEdgeStyle;rounded=0;orthogonalLoop=1;jettySize=auto;html=1;" parent="1" source="6U88BlBu6Zvvrf-shsi7-74" target="6U88BlBu6Zvvrf-shsi7-59" edge="1">
          <mxGeometry x="-0.8846" relative="1" as="geometry">
            <Array as="points">
              <mxPoint x="260" y="360" />
              <mxPoint x="260" y="210" />
            </Array>
            <mxPoint as="offset" />
          </mxGeometry>
        </mxCell>
        <mxCell id="6U88BlBu6Zvvrf-shsi7-74" value="q &amp;gt; р" style="rhombus;whiteSpace=wrap;html=1;rounded=0;" parent="1" vertex="1">
          <mxGeometry x="305" y="340" width="70" height="40" as="geometry" />
        </mxCell>
      </root>
    </mxGraphModel>
  </diagram>
</mxfile>
